<?xml version="1.0" standalone="no"?>
<!DOCTYPE svg PUBLIC "-//W3C//DTD SVG 20010904//EN"
"http://www.w3.org/TR/2001/REC-SVG-20010904/DTD/svg10.dtd">
<svg version="1.0" xmlns="http://www.w3.org/2000/svg"
	viewBox="0 0 130.000000 130.000000"
 	preserveAspectRatio="xMidYMid meet"
>
<g transform="translate(0.000000,130.000000) scale(0.100000,-0.100000)"
fill="#000000" stroke="none">
<path d="M635 1238 c-2 -7 -6 -38 -7 -68 l-3 -55 -55 -8 c-61 -8 -147 -45
-198 -84 l-34 -25 -43 42 c-28 28 -49 41 -59 37 -25 -10 -19 -28 25 -73 l41
-42 -25 -34 c-39 -51 -76 -137 -84 -198 l-8 -55 -65 -5 c-49 -4 -65 -9 -65
-20 0 -11 16 -16 65 -20 l65 -5 8 -55 c8 -61 45 -147 84 -198 l25 -34 -42 -43
c-28 -28 -41 -49 -37 -59 10 -25 28 -19 73 25 l42 41 34 -25 c51 -39 137 -76
198 -84 l55 -8 5 -65 c4 -49 9 -65 20 -65 11 0 16 16 20 65 l5 65 55 8 c61 8
147 45 198 84 l34 25 42 -41 c45 -44 63 -50 73 -25 4 10 -9 31 -37 59 l-42 43
25 34 c39 51 76 137 84 198 l8 55 65 5 c49 4 65 9 65 20 0 11 -16 16 -65 20
l-65 5 -8 55 c-8 61 -45 147 -84 198 l-25 34 41 42 c44 45 50 63 25 73 -10 4
-31 -9 -59 -37 l-43 -42 -34 25 c-51 39 -137 76 -198 84 l-55 8 -5 64 c-5 61
-23 92 -35 59z m-41 -342 c74 -31 107 -140 60 -202 -37 -50 -72 -69 -123 -68
-145 2 -193 188 -69 264 39 23 85 26 132 6z"/>
</g>
</svg>
